<svg width="675" height="223" viewBox="0 0 675 223" fill="none" xmlns="http://www.w3.org/2000/svg">
<g filter="url(#filter0_d_1_13)">
<path d="M154.85 54.8899L571.244 47.6469L529.027 195.662L96.1548 193.944L154.85 54.8899Z" fill="white"/>
<path d="M162.574 65.9169L537.731 56.316L524.139 179.943L120.14 177.371L162.574 65.9169Z" fill="black"/>
<path d="M162.299 65.5148L162.061 65.5209L162.005 65.6678L119.571 177.121L119.326 177.766L120.394 177.773L524.392 180.346L524.697 180.348L524.719 180.145L538.312 56.5178L538.381 55.8903L537.456 55.914L162.299 65.5148ZM96.997 193.546L155.356 55.288L570.483 48.067L528.501 195.259L96.997 193.546ZM120.955 176.975L163.087 66.3129L537.082 56.7417L523.581 179.539L120.955 176.975Z" stroke="black"/>
</g>
<path d="M146.663 66.2904L156 70.5L133.828 109.471L101.173 103.725L109.028 81.3236L45.8644 48.4475L147.08 42.9785L146.663 66.2904Z" fill="white"/>
<path d="M140.023 70.7437L174.455 91.3125L154.158 106.852L113.255 95.545L119.143 75.9834L56.347 51.9939L141.251 52.5596L140.023 70.7437Z" fill="black"/>
<defs>
<filter id="filter0_d_1_13" x="92.1548" y="47.6469" width="483.089" height="156.015" filterUnits="userSpaceOnUse" color-interpolation-filters="sRGB">
<feFlood flood-opacity="0" result="BackgroundImageFix"/>
<feColorMatrix in="SourceAlpha" type="matrix" values="0 0 0 0 0 0 0 0 0 0 0 0 0 0 0 0 0 0 127 0" result="hardAlpha"/>
<feOffset dy="4"/>
<feGaussianBlur stdDeviation="2"/>
<feComposite in2="hardAlpha" operator="out"/>
<feColorMatrix type="matrix" values="0 0 0 0 0 0 0 0 0 0 0 0 0 0 0 0 0 0 0.25 0"/>
<feBlend mode="normal" in2="BackgroundImageFix" result="effect1_dropShadow_1_13"/>
<feBlend mode="normal" in="SourceGraphic" in2="effect1_dropShadow_1_13" result="shape"/>
</filter>
</defs>
</svg>
