<svg width="743" height="759" viewBox="0 0 743 759" fill="none" xmlns="http://www.w3.org/2000/svg">
<circle cx="357" cy="402" r="252" fill="white" stroke="white" stroke-width="4"/>
<path d="M382.844 568.629L349.54 732.196L312.965 569.329L382.844 568.629Z" fill="black" stroke="white" stroke-width="11"/>
<path d="M493.978 537.624L551.968 694.15L434.982 575.081L493.978 537.624Z" fill="black" stroke="white" stroke-width="11"/>
<path d="M258.576 563.305L95.9068 631.386L197.869 487.511L258.576 563.305Z" fill="black" stroke="white" stroke-width="11"/>
<path d="M371.125 236.86L493.481 109.875L456.903 282.381L371.125 236.86Z" fill="black" stroke="white" stroke-width="11"/>
<path d="M524.034 263.842L698.906 241.122L562.578 352.973L524.034 263.842Z" fill="black" stroke="white" stroke-width="11"/>
<path d="M506.278 320.466L682.287 331.282L527.239 415.285L506.278 320.466Z" fill="black" stroke="white" stroke-width="11"/>
<path d="M501.077 448.979L596.917 590.016L447.651 507.575L501.077 448.979Z" fill="black" stroke="white" stroke-width="11"/>
<path d="M319.554 190.549L355.356 26.616L391.61 190.45L319.554 190.549Z" fill="black" stroke="white" stroke-width="11"/>
<path d="M249.022 260.799L186.151 103.37L302.611 226.553L249.022 260.799Z" fill="black" stroke="white" stroke-width="9"/>
<path d="M233.804 343.886L99.0039 252.114L258.136 287.754L233.804 343.886Z" fill="black" stroke="white" stroke-width="11"/>
<path d="M290.785 457.785L112.729 471.546L252.462 360.334L290.785 457.785Z" fill="black" stroke="white" stroke-width="11"/>
<path d="M180.312 410.611L35.1618 302.068L213.61 333.795L180.312 410.611Z" fill="black" stroke="white" stroke-width="7"/>
<circle cx="357" cy="402" r="250" fill="black"/>
</svg>
